<svg width="25" height="25" viewBox="0 0 25 25" fill="none" xmlns="http://www.w3.org/2000/svg">
<g clip-path="url(#clip0_50_5)">
<path d="M22.1222 1.98471C18.8324 4.83705 16.0491 7.55228 13.5009 11.0949C12.3772 12.6574 11.1275 14.4964 10.3106 16.2328C9.84421 17.1535 9.00353 18.5921 8.71694 19.9753C7.14943 18.5144 5.46573 16.8562 3.74304 15.5574C2.51516 14.632 -1.02147 16.5187 0.418139 17.6038C2.99828 19.548 5.14404 21.9695 7.65361 24.0003C8.70329 24.8488 11.0296 23.0062 11.5763 22.2331C13.3707 19.6863 13.616 16.573 14.9238 13.7949C16.9206 9.54603 20.4619 6.0558 23.9584 3.02494C26.2749 0.860487 23.8823 0.461268 22.1257 1.98471" fill="#37B34A"/>
</g>
<defs>
<clipPath id="clip0_50_5">
<rect width="24.9553" height="25" fill="white"/>
</clipPath>
</defs>
</svg>
