<svg width="69" height="69" viewBox="0 0 69 69" fill="none" xmlns="http://www.w3.org/2000/svg">
<g clip-path="url(#clip0_67_26)">
<path d="M34.5 0C15.4504 0 0 15.4506 0 34.5C0 53.5496 15.4504 69 34.5 69C53.5496 69 69 53.5496 69 34.5C69 15.4506 53.5496 0 34.5 0ZM34.5 2.15625C52.3589 2.15625 66.8438 16.6413 66.8438 34.5C66.8438 52.3589 52.3589 66.8438 34.5 66.8438C16.6411 66.8438 2.15625 52.3589 2.15625 34.5C2.15625 16.6413 16.6411 2.15625 34.5 2.15625Z" fill="#7CBE95"/>
<path d="M34.5 6.10938C18.8238 6.10938 6.10938 18.8241 6.10938 34.5C6.10938 50.1762 18.8238 62.8907 34.5 62.8907C50.1762 62.8907 62.8906 50.1762 62.8906 34.5C62.8906 18.8241 50.1762 6.10938 34.5 6.10938Z" fill="#7CBE95"/>
<path d="M34.5 6.10938C18.8238 6.10938 6.10938 18.8241 6.10938 34.5C6.10938 42.3457 9.29711 49.4465 14.444 54.586L54.5859 14.4441C49.4466 9.29717 42.3457 6.10938 34.5 6.10938Z" fill="#57A071"/>
<path d="M24.1571 12.7532C23.9775 12.7533 23.8052 12.8246 23.6783 12.9516L16.9666 19.6765C16.8389 19.8042 16.7675 19.9775 16.7682 20.158V39.166C16.7682 39.54 17.0714 39.8432 17.4454 39.8432H19.874L15.6121 44.1051C15.1857 44.5318 15.4878 45.261 16.0909 45.2612H47.2444C47.6185 45.2612 47.9216 44.958 47.9217 44.584V13.4305C47.9216 13.0565 47.6185 12.7533 47.2444 12.7532C47.0648 12.7533 46.8926 12.8246 46.7656 12.9516L43.8582 15.8591V13.4331C43.8581 13.0591 43.555 12.7559 43.1809 12.7559H24.1571V12.7532ZM24.8952 14.1104H42.5037V17.2136L38.837 20.8802H28.292C27.3762 20.8672 27.3762 22.2477 28.292 22.2347H37.4825L34.7735 24.9437H21.5195C20.6037 24.9307 20.6037 26.3112 21.5195 26.2982H33.419L30.71 29.0072H21.5195C20.6037 28.9942 20.6037 30.3747 21.5195 30.3617H29.3555L26.6465 33.0707H21.5195C20.6037 33.0577 20.6037 34.4382 21.5195 34.4252H25.292L21.2285 38.4887H21.2152H18.1226V20.8802H24.1703H24.2179C24.2633 20.8795 24.3085 20.8741 24.3528 20.8644C24.6675 20.8004 24.894 20.5241 24.8952 20.203L24.8952 14.1104ZM23.5407 15.0099V19.5257H19.0327L23.5407 15.0099ZM46.5672 15.0654V43.9067H17.7259L39.5381 22.0945C39.5858 22.058 39.6286 22.0153 39.6651 21.9675L46.5672 15.0654ZM28.2232 16.8167C27.3202 16.8626 27.389 18.2171 28.292 18.1712H39.1174C40.0333 18.1842 40.0333 16.8038 39.1174 16.8167H28.292C28.2691 16.8156 28.2461 16.8156 28.2232 16.8167ZM43.1809 22.8697C43.0013 22.8697 42.8291 22.9411 42.7021 23.0681L25.7285 40.0416C25.3022 40.4683 25.6042 41.1975 26.2074 41.1977H43.1809C43.555 41.1977 43.8581 40.8945 43.8582 40.5205V23.5469C43.8581 23.1729 43.555 22.8697 43.1809 22.8697ZM42.5037 25.1818V39.8432H27.8423L42.5037 25.1818ZM21.4666 46.6078V46.6158C21.3529 46.6227 21.2428 46.6582 21.1465 46.719L15.7894 49.3962C15.2901 49.6458 15.2901 50.3582 15.7894 50.6078L21.173 53.301C21.1799 53.3056 21.187 53.3099 21.1941 53.3143H21.21C21.2264 53.3229 21.2432 53.3308 21.2603 53.3381H21.263C21.3182 53.3596 21.376 53.3739 21.4349 53.3804C21.4437 53.3806 21.4526 53.3806 21.4614 53.3804H21.4667C21.4808 53.3808 21.4949 53.3808 21.509 53.3804H43.181C43.1951 53.3808 43.2092 53.3808 43.2233 53.3804L46.5672 53.3803C48.0563 53.3803 49.2762 52.1604 49.2762 50.6713V49.3168C49.2762 47.8278 48.0563 46.6078 46.5672 46.6078H43.1809C43.158 46.6066 43.1351 46.6066 43.1122 46.6078H21.5089C21.4948 46.6073 21.4807 46.6073 21.4666 46.6078ZM22.1862 47.9702H42.5037V49.3247H22.1862V47.9702ZM43.8582 47.9702H46.5672C47.3293 47.9702 47.9217 48.5627 47.9217 49.3247V50.6792C47.9217 51.4414 47.3293 52.0337 46.5672 52.0337H43.8582V47.9702ZM20.8317 48.3882V51.6157L17.6042 50.002L20.8317 48.3882ZM22.1862 50.6792H42.5037V52.0337H22.1862V50.6792Z" fill="white"/>
</g>
<defs>
<clipPath id="clip0_67_26">
<rect width="69" height="69" fill="white"/>
</clipPath>
</defs>
</svg>
