<svg width="36" height="43" viewBox="0 0 36 43" fill="none" xmlns="http://www.w3.org/2000/svg">
<g clip-path="url(#clip0_178_46)">
<path d="M32.1429 2.6875H3.85714C2.83416 2.6875 1.85309 3.11222 1.12973 3.86823C0.406376 4.62423 0 5.6496 0 6.71875L0 36.2812C0 37.3504 0.406376 38.3758 1.12973 39.1318C1.85309 39.8878 2.83416 40.3125 3.85714 40.3125H32.1429C33.1658 40.3125 34.1469 39.8878 34.8703 39.1318C35.5936 38.3758 36 37.3504 36 36.2812V6.71875C36 5.6496 35.5936 4.62423 34.8703 3.86823C34.1469 3.11222 33.1658 2.6875 32.1429 2.6875ZM30.8258 28.5018L29.6204 33.9608C29.5592 34.2383 29.4098 34.486 29.1966 34.6634C28.9834 34.8407 28.7189 34.9374 28.4464 34.9375C15.5893 34.9375 5.14286 24.0439 5.14286 10.582C5.15242 10.2999 5.24838 10.0284 5.41661 9.80752C5.58485 9.58664 5.81647 9.42803 6.07741 9.35502L11.3006 8.09525C11.3897 8.07556 11.4804 8.0646 11.5714 8.0625C11.8045 8.0748 12.0302 8.15208 12.2251 8.28632C12.4199 8.42057 12.5769 8.60688 12.6796 8.82592L15.0903 14.7048C15.1493 14.8633 15.1822 15.0312 15.1875 15.2012C15.1679 15.5741 15.0092 15.9241 14.7455 16.1762L11.7008 18.7797C13.5457 22.8664 16.6927 26.1554 20.6028 28.0835L23.0938 24.9014C23.335 24.6258 23.67 24.46 24.0268 24.4395C24.1895 24.4449 24.3501 24.4793 24.5017 24.5411L30.1267 27.0606C30.3364 27.1678 30.5147 27.3318 30.6432 27.5355C30.7717 27.7391 30.8455 27.9751 30.8571 28.2188C30.8555 28.3139 30.845 28.4087 30.8258 28.5018Z" fill="#179417"/>
</g>
<defs>
<clipPath id="clip0_178_46">
<rect width="36" height="43" fill="white"/>
</clipPath>
</defs>
</svg>
