<svg width="22" height="25" viewBox="0 0 22 25" fill="none" xmlns="http://www.w3.org/2000/svg">
<g clip-path="url(#clip0_93_26)">
<path d="M19.6429 1.5625H2.35714C1.73199 1.5625 1.13244 1.80943 0.690391 2.24897C0.248341 2.68851 0 3.28465 0 3.90625L0 21.0938C0 21.7154 0.248341 22.3115 0.690391 22.751C1.13244 23.1906 1.73199 23.4375 2.35714 23.4375H19.6429C20.268 23.4375 20.8676 23.1906 21.3096 22.751C21.7517 22.3115 22 21.7154 22 21.0938V3.90625C22 3.28465 21.7517 2.68851 21.3096 2.24897C20.8676 1.80943 20.268 1.5625 19.6429 1.5625ZM18.838 16.5708L18.1014 19.7446C18.064 19.906 17.9727 20.05 17.8424 20.1531C17.7121 20.2562 17.5505 20.3124 17.3839 20.3125C9.52679 20.3125 3.14286 13.979 3.14286 6.15234C3.1487 5.98831 3.20734 5.83047 3.31015 5.70205C3.41296 5.57363 3.55451 5.48141 3.71397 5.43896L6.90594 4.70654C6.96039 4.69509 7.01579 4.68872 7.07143 4.6875C7.21387 4.69465 7.35179 4.73958 7.47088 4.81763C7.58996 4.89568 7.68586 5.004 7.74862 5.13135L9.22183 8.54932C9.25791 8.64147 9.278 8.73905 9.28125 8.83789C9.26926 9.05471 9.1723 9.25822 9.01116 9.40479L7.15049 10.9185C8.2779 13.2944 10.2011 15.2066 12.5906 16.3276L14.1129 14.4775C14.2603 14.3173 14.465 14.2209 14.683 14.209C14.7824 14.2122 14.8806 14.2321 14.9733 14.2681L18.4108 15.7329C18.5389 15.7952 18.6479 15.8906 18.7264 16.009C18.8049 16.1274 18.8501 16.2646 18.8571 16.4062C18.8562 16.4616 18.8497 16.5167 18.838 16.5708Z" fill="#A36509"/>
</g>
<defs>
<clipPath id="clip0_93_26">
<rect width="22" height="25" fill="white"/>
</clipPath>
</defs>
</svg>
