<svg width="37" height="31" viewBox="0 0 37 31" fill="none" xmlns="http://www.w3.org/2000/svg">
<path d="M1.17989 3.32217L16.5966 13.7304C17.1146 14.0792 17.7847 14.2445 18.4589 14.2445C19.1331 14.2445 19.8032 14.0792 20.3212 13.7304L35.7379 3.32217C36.7431 2.64275 37.6927 0 35.8489 0H1.07095C-0.772885 0 0.176781 2.64275 1.17989 3.32217ZM36.2045 9.01325L20.3212 19.4163C19.6223 19.8762 19.1331 19.9304 18.4589 19.9304C17.7847 19.9304 17.2954 19.8762 16.5966 19.4163C15.8977 18.9565 1.93428 9.75725 0.793448 9.01067C-0.00821881 8.48367 3.3219e-06 9.10108 3.3219e-06 9.57642V28.4167C3.3219e-06 29.5017 1.16345 31 2.05556 31H34.9444C35.8366 31 37 29.5017 37 28.4167V9.579C37 9.10367 37.0082 8.48625 36.2045 9.01325Z" fill="#179417"/>
</svg>
