<svg width="41" height="41" viewBox="0 0 41 41" fill="none" xmlns="http://www.w3.org/2000/svg">
<path d="M20.5 0C9.1754 0 0 9.08716 0 20.3028C0 31.5185 9.1754 40.6057 20.5 40.6057C31.8246 40.6057 41 31.5185 41 20.3028C41 9.08716 31.8246 0 20.5 0ZM30.5681 13.9091L27.2038 29.611C26.9558 30.7244 26.2863 30.9946 25.3522 30.4706L20.2272 26.7293L17.7556 29.0871C17.4829 29.3573 17.2514 29.5865 16.7224 29.5865L17.0861 24.4207L26.5839 15.923C26.9972 15.5628 26.4929 15.3581 25.9474 15.7183L14.2095 23.0372L9.15061 21.4735C8.05121 21.1297 8.02641 20.3847 9.38206 19.8608L29.1464 12.3127C30.0639 11.9852 30.8657 12.5337 30.5681 13.9091Z" fill="#179417"/>
</svg>
