<svg width="41" height="40" viewBox="0 0 41 40" fill="none" xmlns="http://www.w3.org/2000/svg">
<path d="M20.5 0C9.1754 0 0 8.95161 0 20C0 31.0484 9.1754 40 20.5 40C31.8246 40 41 31.0484 41 20C41 8.95161 31.8246 0 20.5 0ZM30.5681 13.7016L27.2038 29.1694C26.9558 30.2661 26.2863 30.5323 25.3522 30.0161L20.2272 26.3306L17.7556 28.6532C17.4829 28.9194 17.2514 29.1452 16.7224 29.1452L17.0861 24.0564L26.5839 15.6855C26.9972 15.3306 26.4929 15.129 25.9474 15.4839L14.2095 22.6935L9.15061 21.1532C8.05121 20.8145 8.02641 20.0806 9.38206 19.5645L29.1464 12.129C30.0639 11.8065 30.8657 12.3468 30.5681 13.7016Z" fill="#A36810"/>
</svg>
