<svg width="68" height="54" viewBox="0 0 68 54" fill="none" xmlns="http://www.w3.org/2000/svg">
<path d="M27.625 39H32.6477V28.7625L36.6659 32.6625L40.1818 29.25L30.1363 19.5L20.0909 29.25L23.6068 32.6625L27.625 28.7625V39ZM30.1363 53.625C26.6623 53.625 23.3975 52.9847 20.342 51.7042C17.2865 50.4254 14.6287 48.6891 12.3684 46.4953C10.1082 44.3016 8.31929 41.7219 7.00166 38.7562C5.68236 35.7906 5.02271 32.6219 5.02271 29.25C5.02271 25.8781 5.68236 22.7094 7.00166 19.7438C8.31929 16.7781 10.1082 14.1984 12.3684 12.0047C14.6287 9.81094 17.2865 8.07381 20.342 6.79331C23.3975 5.51444 26.6623 4.875 30.1363 4.875C33.6104 4.875 36.8752 5.51444 39.9307 6.79331C42.9861 8.07381 45.644 9.81094 47.9042 12.0047C50.1645 14.1984 51.9534 16.7781 53.271 19.7438C54.5903 22.7094 55.25 25.8781 55.25 29.25C55.25 32.6219 54.5903 35.7906 53.271 38.7562C51.9534 41.7219 50.1645 44.3016 47.9042 46.4953C45.644 48.6891 42.9861 50.4254 39.9307 51.7042C36.8752 52.9847 33.6104 53.625 30.1363 53.625ZM30.1363 48.75C35.7451 48.75 40.4957 46.8609 44.3883 43.0828C48.2809 39.3047 50.2272 34.6938 50.2272 29.25C50.2272 23.8062 48.2809 19.1953 44.3883 15.4172C40.4957 11.6391 35.7451 9.75 30.1363 9.75C24.5276 9.75 19.777 11.6391 15.8844 15.4172C11.9917 19.1953 10.0454 23.8062 10.0454 29.25C10.0454 34.6938 11.9917 39.3047 15.8844 43.0828C19.777 46.8609 24.5276 48.75 30.1363 48.75Z" fill="#E3CFB0"/>
</svg>
