<svg width="39" height="40" viewBox="0 0 39 40" fill="none" xmlns="http://www.w3.org/2000/svg">
<path d="M25.4923 0H13.5272C2.59935 0 0 2.666 0 13.854V26.126C0 37.332 2.57985 40 13.5077 40H25.4729C36.3987 40 39 37.354 39 26.146V13.874C39 2.666 36.4202 0 25.4923 0ZM31.4847 28.54H28.6397C27.5633 28.54 27.2396 27.646 25.3091 25.666C23.6243 24 22.9125 23.792 22.4855 23.792C21.8966 23.792 21.7347 23.958 21.7347 24.792V27.416C21.7347 28.126 21.5105 28.542 19.7028 28.542C17.9485 28.4211 16.2473 27.8744 14.7393 26.9471C13.2313 26.0197 11.9597 24.7382 11.0292 23.208C8.82018 20.388 7.28314 17.0783 6.5403 13.542C6.5403 13.104 6.70215 12.708 7.5153 12.708H10.3584C11.0897 12.708 11.3529 13.042 11.6396 13.812C13.0202 17.98 15.3758 21.604 16.3313 21.604C16.6979 21.604 16.8578 21.438 16.8578 20.5V16.208C16.7369 14.25 15.7228 14.084 15.7228 13.376C15.7359 13.1893 15.8193 13.0151 15.9555 12.8904C16.0916 12.7657 16.2698 12.7002 16.4522 12.708H20.9216C21.5319 12.708 21.7347 13.02 21.7347 13.77V19.562C21.7347 20.188 21.9979 20.396 22.1812 20.396C22.5478 20.396 22.8306 20.188 23.5014 19.5C24.9422 17.6979 26.1193 15.6902 26.9958 13.54C27.0854 13.2817 27.2549 13.0606 27.4785 12.9104C27.7021 12.7602 27.9674 12.6891 28.2341 12.708H31.0791C31.9312 12.708 32.1126 13.146 31.9313 13.77C30.8968 16.1469 29.6167 18.4031 28.1131 20.5C27.807 20.98 27.6842 21.23 28.1131 21.792C28.3959 22.23 29.3924 23.084 30.0632 23.896C31.038 24.8933 31.8475 26.0471 32.4597 27.312C32.7034 28.124 32.2959 28.542 31.4847 28.542V28.54Z" fill="#A36810"/>
</svg>
